<?xml version="1.0" encoding="UTF-8" standalone="no"?>
<svg
   viewBox="0 0 464.02499 448.04999"
   version="1.1"
   id="svg4"
   sodipodi:docname="arrow-rotate-right-solid.svg"
   inkscape:version="1.2.2 (732a01da63, 2022-12-09)"
   width="464.02499"
   height="448.04999"
   xmlns:inkscape="http://www.inkscape.org/namespaces/inkscape"
   xmlns:sodipodi="http://sodipodi.sourceforge.net/DTD/sodipodi-0.dtd"
   xmlns="http://www.w3.org/2000/svg"
   xmlns:svg="http://www.w3.org/2000/svg">
  <defs
     id="defs8" />
  <sodipodi:namedview
     id="namedview6"
     pagecolor="#ffffff"
     bordercolor="#000000"
     borderopacity="0.25"
     inkscape:showpageshadow="2"
     inkscape:pageopacity="0.0"
     inkscape:pagecheckerboard="0"
     inkscape:deskcolor="#d1d1d1"
     showgrid="false"
     inkscape:zoom="1.1559538"
     inkscape:cx="-7.7857783"
     inkscape:cy="247.41473"
     inkscape:window-width="1920"
     inkscape:window-height="1017"
     inkscape:window-x="1912"
     inkscape:window-y="-8"
     inkscape:window-maximized="1"
     inkscape:current-layer="svg4" />
  <!--!Font Awesome Free 6.5.1 by @fontawesome - https://fontawesome.com License - https://fontawesome.com/license/free Copyright 2024 Fonticons, Inc.-->
  <path
     d="m 354.325,128.025 h -50.3 c -17.7,0 -32,14.3 -32,32 0,17.7 14.3,32 32,32 h 128 c 17.7,0 32,-14.3 32,-32 v -128 c 0,-17.7 -14.3,-32 -32,-32 -17.7,0 -32,14.3 -32,32 v 51.2 l -17.6,-17.6 c -87.5,-87.5 -229.3,-87.5 -316.8,0 -87.5,87.5 -87.5,229.3 0,316.8 87.5,87.5 229.3,87.5 316.8,0 12.5,-12.5 12.5,-32.8 0,-45.3 -12.5,-12.5 -32.8,-12.5 -45.3,0 -62.5,62.5 -163.8,62.5 -226.3,0 -62.5,-62.5 -62.5,-163.8 0,-226.3 62.5,-62.5 163.8,-62.5 226.3,0 z"
     id="path2"
     style="fill:#ffffff" />
</svg>
