<?xml version="1.0" encoding="UTF-8" standalone="no"?>
<svg
   height="16"
   width="16"
   viewBox="0 0 512 512"
   version="1.1"
   id="svg4"
   sodipodi:docname="paste-regular.svg"
   inkscape:version="1.2.2 (732a01da63, 2022-12-09)"
   xmlns:inkscape="http://www.inkscape.org/namespaces/inkscape"
   xmlns:sodipodi="http://sodipodi.sourceforge.net/DTD/sodipodi-0.dtd"
   xmlns="http://www.w3.org/2000/svg"
   xmlns:svg="http://www.w3.org/2000/svg">
  <defs
     id="defs8" />
  <sodipodi:namedview
     id="namedview6"
     pagecolor="#ffffff"
     bordercolor="#000000"
     borderopacity="0.25"
     inkscape:showpageshadow="2"
     inkscape:pageopacity="0.0"
     inkscape:pagecheckerboard="0"
     inkscape:deskcolor="#d1d1d1"
     showgrid="false"
     inkscape:zoom="52.3125"
     inkscape:cx="7.9713262"
     inkscape:cy="8.0095579"
     inkscape:window-width="1920"
     inkscape:window-height="1017"
     inkscape:window-x="-8"
     inkscape:window-y="-8"
     inkscape:window-maximized="1"
     inkscape:current-layer="svg4" />
  <!--!Font Awesome Free 6.5.1 by @fontawesome - https://fontawesome.com License - https://fontawesome.com/license/free Copyright 2023 Fonticons, Inc.-->
  <path
     opacity="1"
     fill="#1E3050"
     d="M104.6 48H64C28.7 48 0 76.7 0 112V384c0 35.3 28.7 64 64 64h96V400H64c-8.8 0-16-7.2-16-16V112c0-8.8 7.2-16 16-16H80c0 17.7 14.3 32 32 32h72.4C202 108.4 227.6 96 256 96h62c-7.1-27.6-32.2-48-62-48H215.4C211.6 20.9 188.2 0 160 0s-51.6 20.9-55.4 48zM144 56a16 16 0 1 1 32 0 16 16 0 1 1 -32 0zM448 464H256c-8.8 0-16-7.2-16-16V192c0-8.8 7.2-16 16-16l140.1 0L464 243.9V448c0 8.8-7.2 16-16 16zM256 512H448c35.3 0 64-28.7 64-64V243.9c0-12.7-5.1-24.9-14.1-33.9l-67.9-67.9c-9-9-21.2-14.1-33.9-14.1H256c-35.3 0-64 28.7-64 64V448c0 35.3 28.7 64 64 64z"
     id="path2"
     style="fill:#000000" />
</svg>
